<?xml version="1.0" encoding="UTF-8"?>
<!DOCTYPE svg PUBLIC "-//W3C//DTD SVG 1.1//EN" "http://www.w3.org/Graphics/SVG/1.1/DTD/svg11.dtd">
<!-- Creator: CorelDRAW -->
<svg xmlns="http://www.w3.org/2000/svg" xml:space="preserve" width="147.951mm" height="37.1555mm" version="1.1" style="shape-rendering:geometricPrecision; text-rendering:geometricPrecision; image-rendering:optimizeQuality; fill-rule:evenodd; clip-rule:evenodd"
viewBox="0 0 831.21 208.74"
 xmlns:xlink="http://www.w3.org/1999/xlink"
 xmlns:xodm="http://www.corel.com/coreldraw/odm/2003">
 <defs>
  <style type="text/css">
   <![CDATA[
    .fil1 {fill:#0071F0}
    .fil3 {fill:#CCCCCC;fill-rule:nonzero}
    .fil2 {fill:#CCCCCC;fill-rule:nonzero}
    .fil0 {fill:white;fill-rule:nonzero}
   ]]>
  </style>
 </defs>
 <g id="Katman_x0020_1">
  <metadata id="CorelCorpID_0Corel-Layer"/>
  <g id="_2532962468432">
   <g>
    <path class="fil0" d="M294.68 67.61c-7.17,-2.17 -13.87,-2.47 -20.07,-0.94 -6.23,1.56 -11.98,4.98 -17.32,10.31 -7.03,7.03 -10.4,15.51 -10.06,25.35 0.36,9.87 4.39,18.62 12.09,26.32 7.59,7.59 16.32,11.48 26.24,11.68 9.9,0.17 18.51,-3.39 25.85,-10.73 5.64,-5.64 9.12,-11.56 10.42,-17.71 1.33,-6.17 0.53,-12.59 -2.47,-19.26l22.18 -22.18c8.26,13.7 11.56,27.57 9.95,41.7 -1.61,14.12 -8.06,26.8 -19.29,38.03 -6.62,6.62 -13.9,11.56 -21.9,14.84 -8.01,3.28 -16.62,4.89 -25.8,4.84 -8.56,-0.11 -16.96,-1.89 -25.18,-5.34 -8.2,-3.42 -15.34,-8.17 -21.35,-14.18 -6.31,-6.31 -11.09,-13.26 -14.43,-20.93 -3.31,-7.64 -5.03,-15.76 -5.17,-24.41 -0.28,-9.62 1.22,-18.62 4.56,-27.02 3.31,-8.42 8.31,-15.98 15.04,-22.71 10.95,-10.95 23.57,-17.35 37.86,-19.12 14.26,-1.81 27.94,1.31 41.03,9.28l-22.18 22.18zm127.35 36.74c0,4.22 1.4,7.8 4.21,10.72 2.81,2.93 6.19,4.4 10.16,4.4 4.5,0 8.24,-1.45 11.21,-4.37 2.95,-2.92 4.43,-6.56 4.43,-10.95 0,-4.18 -1.47,-7.79 -4.42,-10.82 -2.95,-3.02 -6.5,-4.53 -10.66,-4.53 -4.21,0 -7.76,1.48 -10.63,4.47 -2.87,2.98 -4.3,6.68 -4.3,11.08zm228.07 -34.15c-7.76,-4.2 -15.32,-5.75 -22.63,-4.67 -7.34,1.06 -14.2,4.81 -20.6,11.2 -5.53,5.53 -8.81,12.2 -9.84,19.96 -1.03,7.76 0.44,15.12 4.42,22.15l48.65 -48.65zm-32.86 65.88c7.14,5.75 14.84,8.28 22.96,7.56 8.12,-0.67 15.71,-4.53 22.68,-11.51 4.67,-4.67 7.89,-9.84 9.65,-15.54 1.75,-5.64 1.95,-11.34 0.58,-17.04l22.52 -22.52c5.95,13.57 7.87,26.82 5.7,39.83 -2.17,12.95 -8.23,24.41 -18.18,34.36 -6.67,6.67 -13.98,11.65 -21.96,14.9 -7.98,3.25 -16.51,4.78 -25.6,4.64 -8.62,-0.17 -16.98,-1.97 -25.1,-5.42 -8.09,-3.42 -15.2,-8.2 -21.26,-14.26 -6.25,-6.25 -11.04,-13.2 -14.4,-20.85 -3.36,-7.64 -5.14,-15.76 -5.36,-24.32 -0.28,-9.4 1.17,-18.29 4.34,-26.63 3.14,-8.37 7.76,-15.59 13.9,-21.74 7.76,-7.76 16.76,-13.26 27.02,-16.46 10.26,-3.2 20.96,-3.95 32.08,-2.28 6.75,0.97 13.18,3.17 19.35,6.56 6.14,3.36 12.31,8.14 18.51,14.34 0.47,0.47 1.2,1.25 2.14,2.31 0.97,1.08 1.67,1.83 2.17,2.33l-71.72 71.72zm-587.09 -31.19c0,10.3 3.42,19.03 10.26,26.14 6.84,7.15 15.1,10.73 24.77,10.73 10.97,0 20.09,-3.54 27.32,-10.65 7.19,-7.12 10.81,-16 10.81,-26.69 0,-10.18 -3.58,-18.99 -10.77,-26.38 -7.19,-7.35 -15.84,-11.05 -25.98,-11.05 -10.26,0 -18.91,3.62 -25.91,10.89 -7,7.27 -10.5,16.28 -10.5,27.01zm-1.14 -53.78c5.46,-4.52 11.36,-7.86 17.73,-9.95 6.41,-2.12 13.68,-3.18 21.9,-3.18 8.45,0 16.39,1.41 23.86,4.25 7.43,2.87 14.03,7 19.81,12.46 6.84,6.29 12.11,13.72 15.84,22.29 3.73,8.57 5.58,17.57 5.58,27.01 0,10.14 -2.04,19.7 -6.17,28.74 -4.09,9 -9.95,16.83 -17.57,23.43 -5.58,4.84 -11.95,8.53 -18.99,11.05 -7.08,2.56 -14.62,3.81 -22.6,3.81 -7.51,0 -14.51,-1.14 -20.95,-3.38 -6.45,-2.28 -12.58,-5.7 -18.44,-10.3l0 10.38 -29.01 0 0 -167.7 29.01 0 0 51.1zm133.97 116.6l0 -100.48 -19.34 0 0 -26.18 19.34 0 0 -41.04 29.48 0 0 41.04 19.58 0 0 26.18 -19.58 0 0 100.48 -29.48 0z"/>
    <path class="fil1" d="M704.31 41.04l31.17 0 30.86 88.45 34 -88.45 30.86 0 -68.44 167.7 -30.39 0 17.73 -44.58 -45.8 -123.12zm-182.29 126.66l0 -167.7 28.78 0 0 167.7 -28.78 0zm-120.96 -64.16c0,11.75 3.22,21.03 9.67,27.91 6.45,6.88 15.17,10.3 26.26,10.3 10.89,0 19.58,-3.5 26.06,-10.54 6.49,-7 9.71,-16.47 9.71,-28.34 0,-10.69 -3.38,-19.42 -10.18,-26.3 -6.8,-6.88 -15.33,-10.3 -25.59,-10.3 -10.61,0 -19.22,3.46 -25.91,10.42 -6.68,6.92 -10.02,15.88 -10.02,26.85zm-30.43 0.24c0,-8.88 1.65,-17.34 4.91,-25.36 3.26,-8.02 7.98,-15.13 14.19,-21.35 6.37,-6.37 13.56,-11.28 21.54,-14.7 7.98,-3.42 16.27,-5.11 24.88,-5.11 9.12,0 17.57,1.53 25.28,4.56 7.7,3.03 14.82,7.55 21.27,13.64 6.6,6.37 11.68,13.68 15.29,22.01 3.62,8.33 5.43,16.86 5.43,25.63 0,9.67 -1.57,18.48 -4.72,26.46 -3.15,7.98 -7.86,15.17 -14.15,21.62 -6.33,6.52 -13.48,11.48 -21.54,14.82 -8.06,3.34 -16.83,4.99 -26.26,4.99 -9.51,0 -18.2,-1.69 -26.02,-5.07 -7.86,-3.38 -14.98,-8.45 -21.42,-15.17 -6.17,-6.6 -10.81,-13.88 -13.96,-21.82 -3.15,-7.94 -4.72,-16.31 -4.72,-25.16zm-318.91 0.8c0,4.22 1.4,7.8 4.21,10.72 2.81,2.93 6.19,4.4 10.16,4.4 4.5,0 8.24,-1.45 11.21,-4.37 2.95,-2.92 4.43,-6.56 4.43,-10.95 0,-4.18 -1.47,-7.79 -4.42,-10.82 -2.95,-3.02 -6.5,-4.53 -10.66,-4.53 -4.21,0 -7.76,1.48 -10.63,4.47 -2.87,2.98 -4.3,6.68 -4.3,11.08z"/>
    <path class="fil2" d="M269.36 104.35c0,4.22 1.4,7.8 4.21,10.72 2.81,2.93 6.19,4.4 10.16,4.4 4.5,0 8.24,-1.45 11.21,-4.37 2.95,-2.92 4.43,-6.56 4.43,-10.95 0,-4.18 -1.47,-7.79 -4.42,-10.82 -2.95,-3.02 -6.5,-4.53 -10.66,-4.53 -4.21,0 -7.76,1.48 -10.63,4.47 -2.87,2.98 -4.31,6.68 -4.31,11.08z"/>
    <path class="fil3" d="M602.52 207.98l-6.8 0 0 -7.3 6.8 0 0 7.3zm28.58 -18.84c-0.82,-1.52 -1.86,-2.67 -3.12,-3.43 -1.27,-0.76 -2.77,-1.14 -4.51,-1.14 -2.3,0 -4.23,0.83 -5.78,2.5 -1.55,1.67 -2.32,3.76 -2.32,6.27 0,2.48 0.79,4.54 2.38,6.19 1.59,1.64 3.58,2.47 5.97,2.47 1.84,0 3.38,-0.4 4.59,-1.19 1.23,-0.79 2.14,-1.97 2.74,-3.55l7.24 0c-0.89,3.58 -2.61,6.39 -5.18,8.43 -2.57,2.04 -5.69,3.06 -9.35,3.06 -2.16,0 -4.16,-0.38 -6,-1.15 -1.84,-0.77 -3.51,-1.91 -5,-3.42 -1.38,-1.42 -2.46,-3.08 -3.24,-4.98 -0.78,-1.9 -1.17,-3.84 -1.17,-5.8 0,-2.06 0.35,-3.97 1.06,-5.77 0.71,-1.79 1.75,-3.39 3.14,-4.83 1.52,-1.61 3.24,-2.84 5.15,-3.66 1.91,-0.83 3.96,-1.25 6.16,-1.25 3.57,0 6.68,1.02 9.3,3.06 2.62,2.03 4.35,4.77 5.18,8.21l-7.24 0zm17.2 4.03c0,2.71 0.74,4.85 2.23,6.44 1.49,1.59 3.5,2.38 6.06,2.38 2.51,0 4.52,-0.81 6.01,-2.43 1.5,-1.61 2.24,-3.8 2.24,-6.54 0,-2.47 -0.78,-4.48 -2.35,-6.07 -1.57,-1.59 -3.54,-2.38 -5.91,-2.38 -2.45,0 -4.44,0.8 -5.98,2.4 -1.54,1.6 -2.31,3.66 -2.31,6.2zm-7.02 0.05c0,-2.05 0.38,-4 1.13,-5.85 0.75,-1.85 1.84,-3.49 3.28,-4.93 1.47,-1.47 3.13,-2.6 4.97,-3.39 1.84,-0.79 3.76,-1.18 5.74,-1.18 2.11,0 4.06,0.35 5.83,1.05 1.78,0.7 3.42,1.74 4.91,3.15 1.52,1.47 2.69,3.16 3.53,5.08 0.83,1.92 1.25,3.89 1.25,5.92 0,2.23 -0.36,4.26 -1.09,6.11 -0.73,1.84 -1.81,3.5 -3.27,4.99 -1.46,1.51 -3.11,2.65 -4.97,3.42 -1.86,0.77 -3.88,1.15 -6.06,1.15 -2.2,0 -4.2,-0.39 -6.01,-1.17 -1.81,-0.78 -3.46,-1.95 -4.94,-3.5 -1.42,-1.52 -2.5,-3.2 -3.22,-5.04 -0.73,-1.83 -1.09,-3.77 -1.09,-5.81zm41.61 -14.48l0 3.31c0.99,-1.32 2.13,-2.31 3.41,-2.95 1.29,-0.64 2.75,-0.96 4.4,-0.96 2.36,0 4.37,0.42 6.04,1.25 1.68,0.83 3.12,2.13 4.32,3.9 1.15,-1.73 2.45,-3.03 3.88,-3.87 1.43,-0.85 3.02,-1.28 4.75,-1.28 3.58,0 6.32,1.12 8.24,3.38 1.91,2.25 2.87,5.48 2.87,9.67l0 16.78 -6.7 0 0 -12.96c0,-3.96 -0.44,-6.67 -1.32,-8.09 -0.88,-1.42 -2.4,-2.14 -4.55,-2.14 -2.25,0 -3.86,0.8 -4.82,2.4 -0.97,1.61 -1.45,4.35 -1.45,8.26l0 12.53 -6.75 0 0 -12.96c0,-3.95 -0.44,-6.64 -1.34,-8.08 -0.9,-1.43 -2.46,-2.15 -4.69,-2.15 -2.27,0 -3.9,0.8 -4.89,2.4 -0.99,1.61 -1.49,4.35 -1.49,8.26l0 12.53 -6.59 0 0 -29.23 6.67 0z"/>
   </g>
  </g>
 </g>
</svg>
