<?xml version="1.0" encoding="UTF-8"?>
<!DOCTYPE svg PUBLIC "-//W3C//DTD SVG 1.1//EN" "http://www.w3.org/Graphics/SVG/1.1/DTD/svg11.dtd">
<!-- Creator: CorelDRAW -->
<svg xmlns="http://www.w3.org/2000/svg" xml:space="preserve" width="45.1335mm" height="48.0296mm" version="1.1" style="shape-rendering:geometricPrecision; text-rendering:geometricPrecision; image-rendering:optimizeQuality; fill-rule:evenodd; clip-rule:evenodd"
viewBox="0 0 77.37 82.33"
 xmlns:xlink="http://www.w3.org/1999/xlink"
 xmlns:xodm="http://www.corel.com/coreldraw/odm/2003">
 <defs>
  <style type="text/css">
   <![CDATA[
    .str0 {stroke:white;stroke-width:1.74;stroke-miterlimit:22.9256}
    .fil4 {fill:none}
    .fil2 {fill:#0071F0}
    .fil3 {fill:#293B7B}
    .fil1 {fill:white;fill-rule:nonzero}
    .fil0 {fill:url(#id1)}
   ]]>
  </style>
    <clipPath id="id0">
     <path d="M14.98 21.29l23.87 -14.37 23.53 14.02 -0.23 13.33 -11.71 6.95 11.47 6.84 0.23 12.98 -23.76 14.37 -23.32 -14.4 -0.09 -39.72zm23.74 -1.43l-12.46 7.39 0 27.44 12.49 7.5 12.78 -7.65 -12.84 -7.62 0.04 -11.76 12.63 -7.81 -12.64 -7.49z"/>
    </clipPath>
  <linearGradient id="id1" gradientUnits="userSpaceOnUse" x1="375.21" y1="322.54" x2="-95.22" y2="309.97">
   <stop offset="0" style="stop-opacity:1; stop-color:#0B0E12"/>
   <stop offset="1" style="stop-opacity:1; stop-color:#090831"/>
  </linearGradient>
 </defs>
 <g id="Katman_x0020_1">
  <metadata id="CorelCorpID_0Corel-Layer"/>
  <path class="fil0" d="M19.62 0.44l38.14 0c10.55,0 19.18,8.63 19.18,19.18l0 43.1c0,10.55 -8.63,19.18 -19.18,19.18l-38.14 0c-10.55,0 -19.18,-8.63 -19.18,-19.18l0 -43.1c0,-10.55 8.63,-19.18 19.18,-19.18z"/>
  <path class="fil1" d="M19.62 0l38.14 0c5.39,0 10.3,2.21 13.85,5.76 3.55,3.56 5.76,8.46 5.76,13.85l0 43.1c0,5.39 -2.21,10.3 -5.76,13.85 -3.56,3.55 -8.46,5.76 -13.85,5.76l-38.14 0c-5.39,0 -10.3,-2.21 -13.85,-5.76 -3.55,-3.56 -5.76,-8.46 -5.76,-13.85l0 -43.1c0,-5.39 2.21,-10.3 5.76,-13.85 3.56,-3.55 8.46,-5.76 13.85,-5.76zm38.14 0.87l-38.14 0c-5.15,0 -9.84,2.11 -13.24,5.51 -3.4,3.4 -5.51,8.08 -5.51,13.24l0 43.1c0,5.15 2.11,9.84 5.51,13.24 3.4,3.4 8.08,5.51 13.24,5.51l38.14 0c5.15,0 9.84,-2.11 13.24,-5.51 3.4,-3.4 5.51,-8.08 5.51,-13.24l0 -43.1c0,-5.15 -2.11,-9.84 -5.51,-13.24 -3.4,-3.4 -8.08,-5.51 -13.24,-5.51z"/>
  <g id="_2532964665952">
   <path class="fil2" d="M14.98 21.29l23.87 -14.37 23.53 14.02 -0.23 13.33 -11.71 6.95 11.47 6.84 0.23 12.98 -23.76 14.37 -23.32 -14.4 -0.09 -39.72zm23.74 -1.43l-12.46 7.39 0 27.44 12.49 7.5 12.78 -7.65 -12.84 -7.62 0.04 -11.76 12.63 -7.81 -12.64 -7.49z"/>
   <g style="clip-path:url(#id0)">
    <g>
     <path id="_1" class="fil3" d="M38.86 75.13l0 -13 -0.11 0.06 -12.49 -7.5 -0 -27.44 12.46 -7.39 0.14 0.08 0 -13.03 -23.87 14.37 0.09 39.72 23.32 14.4 0.46 -0.28zm0 -28.11l0 -11.94 -0.12 0.08 -0.04 11.76 0.17 0.1z"/>
     <polygon class="fil3" points="62.15,34.27 51.36,27.35 62.38,20.94 "/>
     <polygon class="fil3" points="39.63,47.48 50.45,41.22 39.43,34.73 38.74,35.16 38.69,46.92 "/>
     <polygon class="fil3" points="61.81,61.25 51.44,54.6 51.53,54.55 51.44,54.5 61.93,48.4 62.15,61.04 "/>
    </g>
   </g>
   <path class="fil4 str0" d="M14.98 21.29l23.87 -14.37 23.53 14.02 -0.23 13.33 -11.71 6.95 11.47 6.84 0.23 12.98 -23.76 14.37 -23.32 -14.4 -0.09 -39.72zm23.74 -1.43l-12.46 7.39 0 27.44 12.49 7.5 12.78 -7.65 -12.84 -7.62 0.04 -11.76 12.63 -7.81 -12.64 -7.49z"/>
  </g>
 </g>
</svg>
